<svg width="26" height="28" viewBox="0 0 26 28" fill="none" xmlns="http://www.w3.org/2000/svg">
<path d="M11.2308 1.83448C12.1801 0.721841 13.8199 0.721841 14.7692 1.83448L15.9898 3.26527C16.4694 3.8276 17.159 4.13247 17.8707 4.09697L19.6815 4.00663C21.0896 3.93637 22.2494 5.1743 22.1836 6.67757L22.0989 8.61067C22.0656 9.37041 22.3512 10.1065 22.878 10.6186L24.2182 11.9216C25.2606 12.9349 25.2606 14.6855 24.2182 15.6989L22.878 17.0019C22.3512 17.5139 22.0656 18.25 22.0989 19.0098L22.1836 20.9429C22.2494 22.4461 21.0896 23.6841 19.6815 23.6139L17.8707 23.5235C17.159 23.4879 16.4694 23.7928 15.9898 24.3552L14.7692 25.7859C13.8199 26.8987 12.1801 26.8987 11.2308 25.7859L10.0102 24.3552C9.53047 23.7928 8.84098 23.4879 8.1293 23.5235L6.31845 23.6139C4.91028 23.6841 3.75064 22.4461 3.81646 20.9429L3.90109 19.0098C3.93435 18.25 3.64875 17.5139 3.12199 17.0019L1.7817 15.6989C0.739434 14.6855 0.739434 12.9349 1.7817 11.9216L3.12199 10.6186C3.64875 10.1065 3.93435 9.37041 3.90109 8.61067L3.81646 6.67755C3.75064 5.1743 4.91028 3.93637 6.31846 4.00663L8.1293 4.09697C8.84098 4.13247 9.53047 3.8276 10.0102 3.26527L11.2308 1.83448Z" stroke="#5865F2" stroke-width="2"/>
<path d="M9.41074 13.8103L11.8036 16.3648L16.5894 11.2559" stroke="#5865F2" stroke-width="2" stroke-linecap="round" stroke-linejoin="round"/>
</svg>
